<svg id="Layer_1" data-name="Layer 1" xmlns="http://www.w3.org/2000/svg" viewBox="0 0 140.58 143.22"><defs><style>.cls-1{fill:#300032;}.cls-2{fill:none;}.cls-3{fill:#fff;}</style></defs><title>ic_launcher</title><g id="Group_59" data-name="Group 59"><g id="ic_launcher" data-name="ic launcher"><g id="Rectangle_59" data-name="Rectangle 59"><path id="Path_112" data-name="Path 112" class="cls-1" d="M24.44,0h91.72a24.79,24.79,0,0,1,24.5,24.94v93.34a24.79,24.79,0,0,1-24.5,24.94H24.44A24.8,24.8,0,0,1-.06,118.28V24.94A24.69,24.69,0,0,1,24.38,0Z"/><path id="Path_113" data-name="Path 113" class="cls-2" d="M24.44.91h91.72a23.73,23.73,0,0,1,23.6,23.85v93.52a23.72,23.72,0,0,1-23.42,24H24.44A23.74,23.74,0,0,1,.83,118.46a1.09,1.09,0,0,0,0-.18V24.94A23.66,23.66,0,0,1,24.15.92Z"/></g><g id="tool"><path id="Path_112-2" data-name="Path 112-2" class="cls-3" d="M72.05,85.11l1.62-3.32-34.08-17,2-3.83L75.2,78.89l1.45-2.73L42.91,58.1,44.53,55,78.27,73.1,79.89,70,46.15,52l2.05-3.84L81.34,67.3,83,64.4,56.37,45.66s-1.11-.76-1.45-.93a15.34,15.34,0,0,0-13.63-.51c-17.46,4.17-25.73-9.46-28.62-10.9L-39.64,5.63h-.17a6.1,6.1,0,0,0-8.28,2.42s0,.09-.07.14a6.09,6.09,0,0,0,2.42,8.27l.14.07h.17S3,42.26,6.7,44.22C10,46,27.32,47.29,32.26,63h0a16.46,16.46,0,0,0,6.9,9.29,5.7,5.7,0,0,0,.94.51Z"/></g><g id="tool-2"><path id="Path_112-3" data-name="Path 112-3" class="cls-3" d="M72.05,85.11l1.62-3.32-34.08-17,2-3.83L75.2,78.89l1.45-2.73L42.91,58.1,44.53,55,78.27,73.1,79.89,70,46.15,52l2.05-3.84L81.34,67.3,83,64.4,56.37,45.66s-1.11-.76-1.45-.93a15.34,15.34,0,0,0-13.63-.51c-17.46,4.17-25.73-9.46-28.62-10.9L-39.64,5.63h-.17a6.1,6.1,0,0,0-8.28,2.42s0,.09-.07.14a6.09,6.09,0,0,0,2.42,8.27l.14.07h.17S3,42.26,6.7,44.22C10,46,27.32,47.29,32.26,63h0a16.46,16.46,0,0,0,6.9,9.29,5.7,5.7,0,0,0,.94.51Z"/></g></g><path id="Path_112-4" data-name="Path 112-4" class="cls-3" d="M72.05,85.11l1.62-3.32-34.08-17,2-3.83L75.2,78.89l1.45-2.73L42.91,58.1,44.53,55,78.27,73.1,79.89,70,46.15,52l2.05-3.84L81.34,67.3,83,64.4,56.37,45.66s-1.11-.76-1.45-.93a15.34,15.34,0,0,0-13.63-.51c-17.46,4.17-25.73-9.46-28.62-10.9L-39.64,5.63h-.17a6.1,6.1,0,0,0-8.28,2.42s0,.09-.07.14a6.09,6.09,0,0,0,2.42,8.27l.14.07h.17S3,42.26,6.7,44.22C10,46,27.32,47.29,32.26,63h0a16.46,16.46,0,0,0,6.9,9.29,5.7,5.7,0,0,0,.94.51Z"/><g id="cut"><path id="Path_113-2" data-name="Path 113-2" class="cls-3" d="M45.72,109.68l1.08,1.74s17.07,9.36,77.44-28.28c-3.89-13,11.17-15.78,13.23-16,3.07-1.92,34.41-21.78,34.41-21.78h0a6.12,6.12,0,0,0,1.9-8.45l-.09-.14a6.06,6.06,0,0,0-8.35-2h0c-30.86,19.28-30.86,19.28-39,24.49C122.9,61.32,45.72,109.68,45.72,109.68Z"/></g></g></svg>
